# xmcd
#
# Track frame offsets:
#	150
#	16333
#	32551
#	46847
#	63109
#	80424
#	94348
#	112070
#	126955
#	142976
#	155003
#	168054
#	184835
#	197994
#	214629
#	227989
#
# Disc length: 3209 seconds
#
# Revision: 1
# Processed by: cddbd v1.5.1PL2 Copyright (c) Steve Scherf et al.
# Submitted via: audiograbber 1.83.01
#
DISCID=d70c8710
DTITLE=LINDA FELLER - COUNTRY-HITS VOL.1
DYEAR=1996
DGENRE=
TTITLE0=AND´RE MÜTTER HABEN AUCH EIN SCHÖNES KIND
TTITLE1=ENGEL LIEBEN MEIST DIE FALSCHEN
TTITLE2=SCHAU IN MEINE AUGEN
TTITLE3=MITTEN INS HERZ
TTITLE4=DU BIST DAS SALZ IN MEINER SUPPE
TTITLE5=MINUTEN IM FIBER
TTITLE6=ES FÄLLT MIR SCHWER DIR ZU GLAUBEN
TTITLE7=SONNENKINDER SIND WIR ALLE
TTITLE8=SPIEL MIR NOCH EINMAL DAS LIED
TTITLE9=ES GIBT MÄNNER SOVIEL MÄNNER
TTITLE10=ZWEI FÄUSTE UND EIN WHISKY
TTITLE11=DAS SOLL ALLES JETZT VORBEI SEIN
TTITLE12=SOVIEL ZEIT MUSS SEIN
TTITLE13=WARUM KANN ICH NICHT VERGESSEN
TTITLE14=ICH WEISS GENAU WAS ICH WILL
TTITLE15=2 x IST 1 x ZU VIEL
EXTD=
EXTT0=
EXTT1=
EXTT2=
EXTT3=
EXTT4=
EXTT5=
EXTT6=
EXTT7=
EXTT8=
EXTT9=
EXTT10=
EXTT11=
EXTT12=
EXTT13=
EXTT14=
EXTT15=
PLAYORDER=
